<?xml version="1.0" standalone="no"?>
<!DOCTYPE svg PUBLIC "-//W3C//DTD SVG 20010904//EN"
 "http://www.w3.org/TR/2001/REC-SVG-20010904/DTD/svg10.dtd">
<svg version="1.0" xmlns="http://www.w3.org/2000/svg"
 width="700.000000pt" height="700.000000pt" viewBox="0 0 700.000000 700.000000"
 preserveAspectRatio="xMidYMid meet">
<metadata>
Created by potrace 1.11, written by Peter Selinger 2001-2013
</metadata>
<g transform="translate(0.000000,700.000000) scale(0.100000,-0.100000)"
fill="#000000" stroke="none">
<path d="M3021 5847 l2 -272 -49 -29 c-27 -16 -67 -39 -89 -51 -112 -62 -312
-179 -323 -190 -10 -9 39 -41 224 -147 l236 -137 1 -277 2 -277 30 -19 c17
-10 37 -21 45 -24 8 -4 67 -37 130 -74 63 -37 148 -86 188 -109 39 -23 72 -45
72 -49 0 -4 -62 -42 -138 -85 -75 -42 -227 -129 -337 -193 -110 -64 -218 -126
-240 -139 -45 -25 -365 -210 -520 -300 -55 -32 -116 -67 -135 -77 -19 -11 -39
-24 -45 -29 -6 -6 -10 -115 -10 -283 l0 -273 119 -69 c66 -38 143 -82 170 -98
46 -25 261 -149 553 -319 57 -32 106 -63 109 -68 3 -6 5 -131 5 -279 l-1 -269
93 -54 c50 -30 119 -69 152 -88 33 -19 88 -50 123 -69 l62 -35 0 -296 0 -296
43 2 c23 2 45 3 50 4 4 1 7 133 7 294 l0 292 107 60 c59 33 129 73 157 89 28
16 65 37 81 46 17 8 42 24 58 34 l27 18 0 274 0 273 -117 69 c-144 84 -186
108 -286 164 l-77 43 2 278 3 279 210 121 c116 67 223 128 237 136 l26 13 1
276 c1 151 4 278 7 281 3 3 25 17 49 31 24 14 97 56 162 94 65 37 143 82 173
99 93 51 86 23 85 325 0 213 -3 272 -14 285 -7 10 -17 17 -21 17 -7 0 -272
151 -330 188 -14 9 -27 17 -30 17 -3 0 -22 11 -42 23 l-38 24 0 101 c-1 56 -1
180 -1 275 1 96 -3 172 -7 170 -14 -6 -107 -58 -122 -68 -8 -6 -89 -53 -180
-105 l-165 -94 -3 274 -2 273 -50 31 c-28 17 -53 31 -56 31 -3 0 -30 16 -60
35 -30 19 -56 35 -59 35 -3 0 -33 17 -67 38 -77 47 -147 86 -171 95 -16 6 -17
-9 -16 -266z m723 -1242 c124 -71 226 -132 226 -135 -1 -5 -239 -144 -374
-218 -34 -19 -65 -38 -71 -43 -5 -5 -13 -9 -17 -9 -4 0 -8 122 -8 271 0 161 4
269 9 267 5 -1 111 -61 235 -133z m-246 -1373 l-3 -140 -95 55 c-52 31 -108
63 -125 73 -102 60 -158 90 -165 90 -5 0 -10 3 -12 8 -3 7 -62 42 -71 42 -3 0
-6 -120 -6 -267 0 -146 -3 -268 -5 -270 -2 -2 -91 46 -197 108 -107 62 -211
122 -231 133 -21 12 -38 23 -38 26 0 4 303 180 569 331 25 14 114 65 196 113
83 47 157 90 165 95 13 7 15 -10 18 -125 1 -73 1 -196 0 -272z"/>
<path d="M3980 1643 c-1 -77 -1 -734 0 -753 0 -12 12 -15 47 -15 l48 0 0 390
0 389 -23 12 c-13 6 -29 17 -35 23 -26 26 -37 11 -37 -46z"/>
</g>
</svg>
