<?xml version="1.0" encoding="UTF-8" standalone="no"?>
<svg
   xmlns:dc="http://purl.org/dc/elements/1.1/"
   xmlns:cc="http://creativecommons.org/ns#"
   xmlns:rdf="http://www.w3.org/1999/02/22-rdf-syntax-ns#"
   xmlns:svg="http://www.w3.org/2000/svg"
   xmlns="http://www.w3.org/2000/svg"
   xmlns:sodipodi="http://sodipodi.sourceforge.net/DTD/sodipodi-0.dtd"
   xmlns:inkscape="http://www.inkscape.org/namespaces/inkscape"
   sodipodi:docname="diversiplotter-no-bg.svg"
   inkscape:version="1.0 (4035a4fb49, 2020-05-01)"
   id="svg8"
   version="1.1"
   viewBox="0 0 135.46666 135.46667"
   height="512"
   width="512">
  <defs
     id="defs2" />
  <sodipodi:namedview
     inkscape:window-maximized="0"
     inkscape:window-y="0"
     inkscape:window-x="-7"
     inkscape:window-height="1368"
     inkscape:window-width="1718"
     units="px"
     showgrid="true"
     inkscape:document-rotation="0"
     inkscape:current-layer="layer1"
     inkscape:document-units="mm"
     inkscape:cy="528.16586"
     inkscape:cx="42.982259"
     inkscape:zoom="0.49497475"
     inkscape:pageshadow="2"
     inkscape:pageopacity="0.0"
     borderopacity="1.0"
     bordercolor="#666666"
     pagecolor="#ffffff"
     id="base">
    <inkscape:grid
       empspacing="2"
       id="grid833"
       type="xygrid" />
  </sodipodi:namedview>
  <metadata
     id="metadata5">
    <rdf:RDF>
      <cc:Work
         rdf:about="">
        <dc:format>image/svg+xml</dc:format>
        <dc:type
           rdf:resource="http://purl.org/dc/dcmitype/StillImage" />
        <dc:title></dc:title>
      </cc:Work>
    </rdf:RDF>
  </metadata>
  <g
     id="layer1"
     inkscape:groupmode="layer"
     inkscape:label="Layer 1">
    <g
       transform="matrix(0.72849079,0,0,0.72849079,16.848252,19.847119)"
       id="g1439">
      <path
         id="path869"
         style="fill:#44bd32;fill-opacity:1;stroke:none;stroke-width:7.572;stroke-linejoin:round;paint-order:stroke fill markers"
         inkscape:transform-center-x="-2.1166706"
         inkscape:transform-center-y="-2e-06"
         d="m 82.550002,39.99394 -6.350007,3.666442 -6.349997,3.665927 -6.349997,3.666445 -6.350004,3.665923 -6.349997,3.666445 -6.350001,3.665927 -6.35,3.666442 -6.35,3.665926 6.35,3.666443 6.35,3.665926 L 50.8,72.98986 l 6.349997,-3.666443 6.350004,-3.665926 6.349997,-3.666442 6.349997,-3.665927 6.350007,-3.666445 6.349997,-3.665923 6.350004,-3.666445 -6.350004,-3.665927 z" />
      <path
         id="path901"
         style="fill:#99781e;fill-opacity:1;stroke:none;stroke-width:28.6186;stroke-linejoin:round;paint-order:stroke fill markers"
         inkscape:transform-center-x="2.1166671"
         d="m 216,262.00977 v 27.71289 27.71289 27.71289 27.71289 27.71289 27.71289 l 24,13.85742 24,13.85547 24,-13.85547 24,-13.85742 v -27.71289 -27.71289 l -24,13.85742 -24,13.85547 v -27.71289 -27.71289 -27.71289 -27.71289 l -24,-13.85547 z"
         transform="scale(0.26458333)" />
      <path
         id="path905"
         style="fill:#cca028;fill-opacity:1;stroke:none;stroke-width:28.6186;stroke-linejoin:round;paint-order:stroke fill markers"
         inkscape:transform-center-x="-2.1166706"
         inkscape:transform-center-y="-2e-06"
         d="m 312,151.1582 -24,13.85742 -24,13.85547 v 27.71289 27.7129 27.71289 27.71289 l 24,-13.85547 24,-13.85742 v -27.71289 -27.7129 -27.71289 z"
         transform="scale(0.26458333)" />
      <path
         id="path941"
         style="fill:#ffc932;fill-opacity:1;stroke:none;stroke-width:28.6186;stroke-linejoin:round;paint-order:stroke fill markers"
         inkscape:transform-center-x="2.1166671"
         d="m 216,-15.117188 v 27.712891 27.712891 l 24,13.855468 24,13.857422 V 40.308594 12.595703 L 240,-1.2617188 Z m 48,83.138672 v 27.712891 27.712895 l 24,-13.85743 24,-13.855465 V 68.021484 40.308594 l -24,13.855468 z m 0,55.425786 -24,-13.85743 -24,-13.855465 v 27.712895 27.71093 l 24,13.85742 24,13.85547 V 151.1582 Z"
         transform="scale(0.26458333)" />
      <path
         id="path847"
         style="fill:#328a23;fill-opacity:1;stroke:none;stroke-width:7.572;stroke-linejoin:round;paint-order:stroke fill markers"
         inkscape:transform-center-x="2.1166671"
         d="m 31.749999,69.323417 v 7.332369 7.332369 l 6.35,3.666442 6.35,3.665927 6.350001,3.666442 6.349997,3.665926 6.350004,3.666438 6.349997,3.66593 6.349997,3.66644 6.350007,3.66593 v -7.33237 -7.332368 L 76.199995,94.986966 69.849998,91.320524 63.500001,87.654597 57.149997,83.988155 50.8,80.322228 l -6.350001,-3.666442 -6.35,-3.665926 z" />
      <path
         id="path891"
         style="fill:#56f03f;fill-opacity:1;stroke:none;stroke-width:7.572;stroke-linejoin:round;paint-order:stroke fill markers"
         inkscape:transform-center-x="2.1166671"
         d="M 57.149997,10.664982 50.8,14.330908 44.449999,17.997351 50.8,21.663277 l 6.349997,3.666443 6.350004,3.665925 6.349997,3.665926 6.349997,3.666443 6.350007,3.665926 6.349997,3.666442 6.350004,3.665927 V 39.99394 32.661571 L 88.899999,28.995645 82.550002,25.32972 76.199995,21.663277 69.849998,17.997351 63.500001,14.330908 Z" />
      <path
         style="fill:none;stroke:#99781e;stroke-width:2.64583;stroke-linecap:butt;stroke-linejoin:miter;stroke-miterlimit:4;stroke-dasharray:none;stroke-opacity:1"
         d="m 69.849999,112.18333 v 23.28333"
         id="path1090" />
      <path
         id="path1096"
         style="color:#000000;font-style:normal;font-variant:normal;font-weight:normal;font-stretch:normal;font-size:medium;line-height:normal;font-family:sans-serif;font-variant-ligatures:normal;font-variant-position:normal;font-variant-caps:normal;font-variant-numeric:normal;font-variant-alternates:normal;font-variant-east-asian:normal;font-feature-settings:normal;font-variation-settings:normal;text-indent:0;text-align:start;text-decoration:none;text-decoration-line:none;text-decoration-style:solid;text-decoration-color:#000000;letter-spacing:normal;word-spacing:normal;text-transform:none;writing-mode:lr-tb;direction:ltr;text-orientation:mixed;dominant-baseline:auto;baseline-shift:baseline;text-anchor:start;white-space:normal;shape-padding:0;shape-margin:0;inline-size:0;clip-rule:nonzero;display:inline;overflow:visible;visibility:visible;opacity:1;isolation:auto;mix-blend-mode:normal;color-interpolation:sRGB;color-interpolation-filters:linearRGB;solid-color:#000000;solid-opacity:1;vector-effect:none;fill:#328a23;fill-opacity:1;fill-rule:nonzero;stroke:none;stroke-width:9.77008;stroke-linecap:butt;stroke-linejoin:miter;stroke-miterlimit:4;stroke-dasharray:none;stroke-dashoffset:0;stroke-opacity:1;color-rendering:auto;image-rendering:auto;shape-rendering:auto;text-rendering:auto;enable-background:accumulate;stop-color:#000000;stop-opacity:1"
         d="m 312,428 v 0.28711 L 312.49805,428 Z m 0,0.28711 v 83.71094 h 9.76562 v -78.07227 z"
         transform="scale(0.26458333)" />
    </g>
  </g>
</svg>
