<?xml version="1.0" encoding="UTF-8" standalone="no"?>
<svg
   xmlns:dc="http://purl.org/dc/elements/1.1/"
   xmlns:cc="http://creativecommons.org/ns#"
   xmlns:rdf="http://www.w3.org/1999/02/22-rdf-syntax-ns#"
   xmlns:svg="http://www.w3.org/2000/svg"
   xmlns="http://www.w3.org/2000/svg"
   xmlns:sodipodi="http://sodipodi.sourceforge.net/DTD/sodipodi-0.dtd"
   xmlns:inkscape="http://www.inkscape.org/namespaces/inkscape"
   inkscape:export-ydpi="96"
   inkscape:export-xdpi="96"
   inkscape:export-filename="C:\Users\sr41756\workspaces\web\diversify-web\src\assets\diversiplotter-w-text.png"
   sodipodi:docname="diversiplotter-w-text.svg"
   inkscape:version="1.0 (4035a4fb49, 2020-05-01)"
   id="svg8"
   version="1.1"
   viewBox="0 0 135.46666 135.46667"
   height="512"
   width="512">
  <defs
     id="defs2" />
  <sodipodi:namedview
     inkscape:window-maximized="0"
     inkscape:window-y="0"
     inkscape:window-x="0"
     inkscape:window-height="1368"
     inkscape:window-width="1718"
     units="px"
     showgrid="true"
     inkscape:document-rotation="0"
     inkscape:current-layer="layer1"
     inkscape:document-units="mm"
     inkscape:cy="318.76232"
     inkscape:cx="264.0244"
     inkscape:zoom="1.4"
     inkscape:pageshadow="2"
     inkscape:pageopacity="0.0"
     borderopacity="1.0"
     bordercolor="#666666"
     pagecolor="#ffffff"
     id="base">
    <inkscape:grid
       empspacing="2"
       id="grid833"
       type="xygrid" />
  </sodipodi:namedview>
  <metadata
     id="metadata5">
    <rdf:RDF>
      <cc:Work
         rdf:about="">
        <dc:format>image/svg+xml</dc:format>
        <dc:type
           rdf:resource="http://purl.org/dc/dcmitype/StillImage" />
        <dc:title></dc:title>
      </cc:Work>
    </rdf:RDF>
  </metadata>
  <g
     id="layer1"
     inkscape:groupmode="layer"
     inkscape:label="Layer 1">
    <g
       transform="matrix(0.85810929,0,0,0.85810929,9.6107338,-3.2882695e-7)"
       id="g899">
      <path
         sodipodi:type="star"
         style="opacity:1;fill:#dcdde1;fill-opacity:1;stroke:none;stroke-width:2.49019;stroke-linejoin:round;stroke-miterlimit:4;stroke-dasharray:none;stroke-opacity:1;paint-order:stroke fill markers"
         id="path1429"
         sodipodi:sides="6"
         sodipodi:cx="67.73333"
         sodipodi:cy="67.73333"
         sodipodi:r1="67.73333"
         sodipodi:r2="33.866669"
         sodipodi:arg1="1.5707963"
         sodipodi:arg2="2.0943951"
         inkscape:flatsided="true"
         inkscape:rounded="0"
         inkscape:randomized="0"
         d="M 67.733332,135.46666 9.0745464,101.6 9.0745446,33.866666 67.733328,0 l 58.658782,33.866663 0,67.733327 z" />
      <path
         id="path869"
         style="fill:#44bd32;fill-opacity:1;stroke:none;stroke-width:5.51613;stroke-linejoin:round;paint-order:stroke fill markers"
         inkscape:transform-center-x="-2.1166706"
         inkscape:transform-center-y="-2e-06"
         d="m 76.985168,48.982336 -4.625921,2.670969 -4.625915,2.670594 -4.625914,2.670972 -4.62592,2.670591 -4.625914,2.670971 -4.625917,2.670594 -4.625917,2.670969 -4.625916,2.670594 4.625916,2.67097 4.625917,2.670593 4.625917,-2.670593 4.625914,-2.67097 4.62592,-2.670594 4.625914,-2.670969 4.625915,-2.670594 4.625921,-2.670971 4.625915,-2.670591 4.625919,-2.670972 -4.625919,-2.670594 z" />
      <path
         id="path901"
         style="fill:#99781e;fill-opacity:1;stroke:none;stroke-width:5.51614;stroke-linejoin:round;paint-order:stroke fill markers"
         inkscape:transform-center-x="2.1166671"
         d="m 58.4815,70.34859 v 5.341563 5.341564 5.341563 5.341563 5.341563 5.341564 l 4.625917,2.67097 4.625916,2.67059 4.625917,-2.67059 4.625916,-2.67097 v -5.341564 -5.341563 l -4.625916,2.670969 -4.625917,2.670594 V 91.714843 86.37328 81.031717 75.690153 L 63.107417,73.01956 Z" />
      <path
         id="path905"
         style="fill:#bf9625;fill-opacity:1;stroke:none;stroke-width:5.51614;stroke-linejoin:round;paint-order:stroke fill markers"
         inkscape:transform-center-x="-2.1166706"
         inkscape:transform-center-y="-2e-06"
         d="m 76.985166,48.982336 -4.625916,2.67097 -4.625917,2.670593 v 5.341563 5.341565 5.341563 5.341563 l 4.625917,-2.670593 4.625916,-2.67097 v -5.341563 -5.341565 -5.341563 z" />
      <path
         id="path941"
         style="fill:#e5b52d;fill-opacity:1;stroke:none;stroke-width:5.51614;stroke-linejoin:round;paint-order:stroke fill markers"
         inkscape:transform-center-x="2.1166671"
         d="m 58.4815,16.933334 v 5.341563 5.341563 l 4.625917,2.670593 4.625916,2.67097 V 27.61646 22.274897 l -4.625916,-2.67097 z m 9.251833,16.024689 v 5.341564 5.341564 l 4.625917,-2.670972 4.625916,-2.670592 V 32.958023 27.61646 l -4.625916,2.670593 z m 0,10.683128 -4.625916,-2.670972 -4.625917,-2.670592 v 5.341564 5.341185 l 4.625917,2.67097 4.625916,2.670593 v -5.341563 z" />
      <path
         id="path847"
         style="fill:#328a23;fill-opacity:1;stroke:none;stroke-width:5.51613;stroke-linejoin:round;paint-order:stroke fill markers"
         inkscape:transform-center-x="2.1166671"
         d="m 39.977834,70.34859 v 5.341563 5.341563 l 4.625916,2.67097 4.625917,2.670594 4.625917,2.670969 4.625914,2.670593 4.62592,2.670967 4.625914,2.670596 4.625915,2.670968 4.625921,2.670597 V 97.056405 91.714842 L 72.359247,89.044249 67.733332,86.37328 63.107418,83.702686 58.481498,81.031716 53.855584,78.361122 49.229667,75.690153 44.60375,73.01956 Z" />
      <path
         id="path891"
         style="fill:#51e33b;fill-opacity:1;stroke:none;stroke-width:5.51613;stroke-linejoin:round;paint-order:stroke fill markers"
         inkscape:transform-center-x="2.1166671"
         d="m 58.481498,27.61646 -4.625914,2.670593 -4.625917,2.67097 4.625917,2.670594 4.625914,2.67097 4.62592,2.670592 4.625914,2.670594 4.625915,2.67097 4.625921,2.670593 4.625915,2.670969 4.625919,2.670594 v -5.341563 -5.341563 l -4.625919,-2.670594 -4.625915,-2.670592 -4.625921,-2.67097 -4.625915,-2.670594 -4.625914,-2.67097 z" />
      <path
         style="fill:none;stroke:#99781e;stroke-width:1.92746;stroke-linecap:butt;stroke-linejoin:miter;stroke-miterlimit:4;stroke-dasharray:none;stroke-opacity:1"
         d="m 67.733333,101.57164 v 16.96169"
         id="path1090" />
      <path
         id="path1096"
         style="color:#000000;font-style:normal;font-variant:normal;font-weight:normal;font-stretch:normal;font-size:medium;line-height:normal;font-family:sans-serif;font-variant-ligatures:normal;font-variant-position:normal;font-variant-caps:normal;font-variant-numeric:normal;font-variant-alternates:normal;font-variant-east-asian:normal;font-feature-settings:normal;font-variation-settings:normal;text-indent:0;text-align:start;text-decoration:none;text-decoration-line:none;text-decoration-style:solid;text-decoration-color:#000000;letter-spacing:normal;word-spacing:normal;text-transform:none;writing-mode:lr-tb;direction:ltr;text-orientation:mixed;dominant-baseline:auto;baseline-shift:baseline;text-anchor:start;white-space:normal;shape-padding:0;shape-margin:0;inline-size:0;clip-rule:nonzero;display:inline;overflow:visible;visibility:visible;isolation:auto;mix-blend-mode:normal;color-interpolation:sRGB;color-interpolation-filters:linearRGB;solid-color:#000000;solid-opacity:1;vector-effect:none;fill:#328a23;fill-opacity:1;fill-rule:nonzero;stroke:none;stroke-width:1.88315;stroke-linecap:butt;stroke-linejoin:miter;stroke-miterlimit:4;stroke-dasharray:none;stroke-dashoffset:0;stroke-opacity:1;color-rendering:auto;image-rendering:auto;shape-rendering:auto;text-rendering:auto;enable-background:accumulate;stop-color:#000000"
         d="m 76.985166,102.34263 v 0.0553 l 0.096,-0.0553 z m 0,0.0553 v 16.13499 h 1.88229 V 103.4848 Z" />
      <g
         aria-label="DIVERSiplotter"
         id="text842"
         style="font-style:normal;font-weight:normal;font-size:16.9333px;line-height:1.25;font-family:sans-serif;fill:#000000;fill-opacity:1;stroke:none;stroke-width:0.264583">
        <path
           d="m 21.365195,147.63867 q 0,2.9931 -1.628838,4.58059 -1.62057,1.57923 -4.671541,1.57923 H 11.71619 v -12.08812 h 3.704159 q 2.819461,0 4.382153,1.56269 1.562693,1.56269 1.562693,4.36561 z m -1.488279,0.0496 q 0,-2.36471 -1.190622,-3.5636 -1.182355,-1.19889 -3.522259,-1.19889 h -2.042249 v 9.65728 h 1.71152 q 2.513537,0 3.778574,-1.23197 1.265036,-1.24023 1.265036,-3.66282 z"
           style="font-style:normal;font-variant:normal;font-weight:normal;font-stretch:normal;font-size:16.9333px;font-family:'Open Sans';-inkscape-font-specification:'Open Sans';stroke-width:0.264583"
           id="path846" />
        <path
           d="m 24.052364,153.79849 v -12.08812 h 1.405596 v 12.08812 z"
           style="font-style:normal;font-variant:normal;font-weight:normal;font-stretch:normal;font-size:16.9333px;font-family:'Open Sans';-inkscape-font-specification:'Open Sans';stroke-width:0.264583"
           id="path848" />
        <path
           d="m 35.68574,141.71037 h 1.513083 l -4.357349,12.08812 h -1.389059 l -4.332544,-12.08812 h 1.488278 l 2.77812,7.82172 q 0.479556,1.34772 0.760676,2.62103 0.297655,-1.33945 0.777212,-2.67063 z"
           style="font-style:normal;font-variant:normal;font-weight:normal;font-stretch:normal;font-size:16.9333px;font-family:'Open Sans';-inkscape-font-specification:'Open Sans';stroke-width:0.264583"
           id="path850" />
        <path
           d="m 45.607597,153.79849 h -6.738594 v -12.08812 h 6.738594 v 1.2485 h -5.332998 v 3.89432 h 5.010537 v 1.24024 h -5.010537 v 4.44829 h 5.332998 z"
           style="font-style:normal;font-variant:normal;font-weight:normal;font-stretch:normal;font-size:16.9333px;font-family:'Open Sans';-inkscape-font-specification:'Open Sans';stroke-width:0.264583"
           id="path852" />
        <path
           d="m 49.700361,148.77142 v 5.02707 h -1.405596 v -12.08812 h 3.315554 q 2.224149,0 3.28248,0.85162 1.0666,0.85163 1.0666,2.56315 0,2.39778 -2.430855,3.24114 l 3.282481,5.43221 h -1.661911 l -2.926948,-5.02707 z m 0,-1.20716 h 1.926494 q 1.488278,0 2.182808,-0.58704 0.69453,-0.59531 0.69453,-1.77767 0,-1.19889 -0.711066,-1.72806 -0.702798,-0.52916 -2.265491,-0.52916 h -1.827275 z"
           style="font-style:normal;font-variant:normal;font-weight:normal;font-stretch:normal;font-size:16.9333px;font-family:'Open Sans';-inkscape-font-specification:'Open Sans';stroke-width:0.264583"
           id="path854" />
        <path
           d="m 65.600134,150.58216 q 0,1.59576 -1.15755,2.48873 -1.15755,0.89297 -3.141921,0.89297 -2.149735,0 -3.307285,-0.55397 v -1.35599 q 0.744139,0.31419 1.620569,0.49609 0.876431,0.1819 1.736325,0.1819 1.405596,0 2.116663,-0.52916 0.711066,-0.53744 0.711066,-1.48828 0,-0.62839 -0.256315,-1.02526 -0.248046,-0.40514 -0.843357,-0.74414 -0.587043,-0.339 -1.794203,-0.76894 -1.686715,-0.60358 -2.414318,-1.4304 -0.719334,-0.82682 -0.719334,-2.15801 0,-1.39732 1.050063,-2.22415 1.050063,-0.82682 2.778119,-0.82682 1.802471,0 3.315554,0.66146 l -0.438216,1.2237 q -1.496546,-0.62839 -2.91041,-0.62839 -1.116209,0 -1.744593,0.47956 -0.628385,0.47955 -0.628385,1.33118 0,0.62838 0.23151,1.03353 0.23151,0.39687 0.777212,0.73587 0.553971,0.33073 1.686716,0.73587 1.901689,0.67799 2.612755,1.4552 0.719335,0.77722 0.719335,2.01745 z"
           style="font-style:normal;font-variant:normal;font-weight:normal;font-stretch:normal;font-size:16.9333px;font-family:'Open Sans';-inkscape-font-specification:'Open Sans';stroke-width:0.264583"
           id="path856" />
        <path
           d="m 69.238148,153.79849 h -1.372523 v -9.06196 h 1.372523 z M 67.74987,142.28087 q 0,-0.47129 0.23151,-0.68626 0.23151,-0.22324 0.578775,-0.22324 0.330728,0 0.570507,0.22324 0.239778,0.22324 0.239778,0.68626 0,0.46302 -0.239778,0.69453 -0.239779,0.22324 -0.570507,0.22324 -0.347265,0 -0.578775,-0.22324 -0.23151,-0.23151 -0.23151,-0.69453 z"
           style="font-style:normal;font-variant:normal;font-weight:normal;font-stretch:normal;font-size:16.9333px;font-family:'Open Sans';-inkscape-font-specification:'Open Sans';stroke-width:0.264583"
           id="path858" />
        <path
           d="m 76.381883,153.96386 q -0.884699,0 -1.62057,-0.32246 -0.727603,-0.33073 -1.223696,-1.00873 h -0.09922 q 0.09922,0.79375 0.09922,1.50482 v 3.72896 h -1.372523 v -13.12992 h 1.116209 l 0.190169,1.24023 h 0.06614 q 0.529166,-0.74414 1.231964,-1.07486 0.702798,-0.33073 1.612302,-0.33073 1.80247,0 2.778119,1.23196 0.983917,1.23196 0.983917,3.45611 0,2.23242 -1.000453,3.47265 -0.992186,1.23197 -2.761583,1.23197 z m -0.198438,-8.22688 q -1.389059,0 -2.009175,0.76895 -0.620116,0.76894 -0.636653,2.44739 v 0.30592 q 0,1.90996 0.636653,2.73678 0.636652,0.81856 2.042248,0.81856 1.174086,0 1.835544,-0.95085 0.669725,-0.95084 0.669725,-2.62102 0,-1.69499 -0.669725,-2.59622 -0.661458,-0.90951 -1.868617,-0.90951 z"
           style="fill:#666666"
           id="path860" />
        <path
           d="m 83.922497,153.79849 h -1.372523 v -12.86534 h 1.372523 z"
           style="fill:#666666"
           id="path862" />
        <path
           d="m 94.671172,149.25924 q 0,2.21588 -1.116208,3.46438 -1.116209,1.24024 -3.084044,1.24024 -1.215427,0 -2.158003,-0.57051 -0.942577,-0.57051 -1.455206,-1.63711 -0.512629,-1.0666 -0.512629,-2.497 0,-2.21588 1.107941,-3.44784 1.10794,-1.24023 3.075775,-1.24023 1.901689,0 3.017897,1.26503 1.124477,1.26504 1.124477,3.42304 z m -6.903957,0 q 0,1.73633 0.69453,2.64583 0.694529,0.90951 2.042248,0.90951 1.347719,0 2.042249,-0.90124 0.702798,-0.9095 0.702798,-2.6541 0,-1.72805 -0.702798,-2.62102 -0.69453,-0.90124 -2.058785,-0.90124 -1.347719,0 -2.033981,0.8847 -0.686261,0.8847 -0.686261,2.63756 z"
           style="fill:#666666"
           id="path864" />
        <path
           d="m 99.995903,152.83111 q 0.363797,0 0.702797,-0.0496 0.339,-0.0579 0.53744,-0.11575 v 1.05006 q -0.22325,0.10749 -0.66146,0.17363 -0.42995,0.0744 -0.777214,0.0744 -2.629292,0 -2.629292,-2.76985 v -5.39088 h -1.298109 v -0.66146 l 1.298109,-0.5705 0.578775,-1.93476 h 0.793749 v 2.10012 h 2.629292 v 1.0666 h -2.629292 v 5.333 q 0,0.81855 0.388606,1.25677 0.388606,0.43821 1.066599,0.43821 z"
           style="fill:#666666"
           id="path866" />
        <path
           d="m 105.98209,152.83111 q 0.3638,0 0.70279,-0.0496 0.339,-0.0579 0.53744,-0.11575 v 1.05006 q -0.22324,0.10749 -0.66146,0.17363 -0.42995,0.0744 -0.77721,0.0744 -2.62929,0 -2.62929,-2.76985 v -5.39088 h -1.29811 v -0.66146 l 1.29811,-0.5705 0.57877,-1.93476 h 0.79375 v 2.10012 h 2.62929 v 1.0666 h -2.62929 v 5.333 q 0,0.81855 0.38861,1.25677 0.3886,0.43821 1.0666,0.43821 z"
           style="fill:#666666"
           id="path868" />
        <path
           d="m 112.8695,153.96386 q -2.00917,0 -3.17499,-1.2237 -1.15755,-1.22369 -1.15755,-3.39823 0,-2.19108 1.07487,-3.48092 1.08313,-1.28984 2.90214,-1.28984 1.70325,0 2.69544,1.12447 0.99218,1.11621 0.99218,2.95176 v 0.86816 h -6.2425 q 0.0413,1.59576 0.80202,2.42258 0.76894,0.82683 2.158,0.82683 1.46348,0 2.89388,-0.61185 v 1.22369 q -0.7276,0.3142 -1.38079,0.44649 -0.64492,0.14056 -1.5627,0.14056 z m -0.37206,-8.24341 q -1.09141,0 -1.7446,0.71106 -0.64492,0.71107 -0.76067,1.96784 h 4.73768 q 0,-1.29811 -0.57877,-1.98437 -0.57878,-0.69453 -1.65364,-0.69453 z"
           style="fill:#666666"
           id="path870" />
        <path
           d="m 122.66734,144.57117 q 0.60358,0 1.08314,0.0992 l -0.19017,1.2733 q -0.56224,-0.12402 -0.99219,-0.12402 -1.09967,0 -1.88515,0.89296 -0.77721,0.89297 -0.77721,2.22415 v 4.86171 h -1.37252 v -9.06196 h 1.13274 l 0.1571,1.67845 h 0.0661 q 0.50436,-0.8847 1.21543,-1.36426 0.71107,-0.47955 1.56269,-0.47955 z"
           style="fill:#666666"
           id="path872" />
      </g>
    </g>
  </g>
</svg>
